<svg xmlns="http://www.w3.org/2000/svg" xmlns:xlink="http://www.w3.org/1999/xlink" width="500" zoomAndPan="magnify" viewBox="0 0 375 374.999991" height="500" preserveAspectRatio="xMidYMid meet" version="1.0"><defs><clipPath id="a439e50b04"><path d="M 128 89 L 264.714844 89 L 264.714844 237 L 128 237 Z M 128 89 " clip-rule="nonzero"/></clipPath><clipPath id="583427a4fb"><path d="M 126 51.253906 L 234 51.253906 L 234 131 L 126 131 Z M 126 51.253906 " clip-rule="nonzero"/></clipPath><clipPath id="be38510358"><path d="M 126 51.253906 L 235 51.253906 L 235 132 L 126 132 Z M 126 51.253906 " clip-rule="nonzero"/></clipPath></defs><rect x="-37.5" width="450" fill="#ffffff" y="-37.499999" height="449.999989" fill-opacity="1"/><rect x="-37.5" width="450" fill="#ffffff" y="-37.499999" height="449.999989" fill-opacity="1"/><rect x="-37.5" width="450" fill="#00c9b7" y="-37.499999" height="449.999989" fill-opacity="1"/><path fill="#ffb3c0" d="M 88.917969 122.042969 C 64.945312 152.253906 56.273438 204.167969 88.917969 237.984375 C 121.558594 271.796875 175.734375 258.515625 213.980469 264.546875 C 252.222656 270.582031 299.382812 270.582031 309.03125 217.453125 C 318.726562 164.320312 295.730469 151.039062 230.398438 113.578125 C 165.066406 76.113281 134.90625 64.046875 88.917969 122.042969 Z M 88.917969 122.042969 " fill-opacity="1" fill-rule="nonzero"/><path fill="#ff2273" d="M 261.722656 90.074219 L 229.34375 72.960938 C 229.289062 72.925781 229.234375 72.898438 229.179688 72.875 L 229.175781 72.871094 C 228.878906 72.75 228.535156 72.738281 228.164062 72.882812 L 98.582031 124.175781 C 97.511719 124.601562 96.667969 126.109375 96.695312 127.546875 L 98.269531 216.875 C 98.285156 217.75 98.621094 218.394531 99.125 218.667969 L 99.121094 218.671875 L 99.148438 218.6875 C 99.15625 218.691406 99.160156 218.691406 99.164062 218.695312 L 131.382812 236.769531 Z M 261.722656 90.074219 " fill-opacity="1" fill-rule="nonzero"/><path fill="#000000" d="M 104.769531 134.738281 C 105.46875 135.042969 106.445312 134.246094 107.160156 134.152344 C 107.917969 134.058594 108.75 134.128906 109.28125 134.742188 C 110.164062 135.765625 110.082031 139.441406 111.976562 139.105469 C 112.3125 139.042969 112.644531 138.910156 112.972656 138.820312 C 113.3125 138.730469 114.019531 138.421875 114.359375 138.5 C 115.8125 138.839844 116.613281 140.695312 117.285156 141.855469 C 119.066406 144.9375 120.769531 140.789062 122.835938 142.515625 C 123.683594 143.222656 123.78125 144.070312 124.304688 144.988281 C 125.449219 147.003906 126.226562 145.222656 127.554688 145.222656 C 130.917969 145.222656 130.828125 151.351562 135.199219 147.636719 C 135.546875 147.339844 135.992188 147.585938 136.089844 147.910156 C 138.359375 147.578125 141.226562 146.789062 142.109375 144.730469 C 142.964844 142.734375 142.027344 140.34375 139.808594 139.9375 C 139.03125 139.792969 138.148438 139.769531 137.410156 139.476562 C 136.707031 139.195312 135.121094 138.363281 135.714844 137.351562 C 136.503906 136.003906 135.1875 136.292969 134.070312 136.382812 C 132.917969 136.472656 132.015625 136.53125 130.949219 136.089844 C 130.652344 135.964844 130.433594 135.628906 130.636719 135.316406 C 132.335938 132.660156 126.953125 133.953125 125.742188 133.796875 C 123.84375 133.546875 124.078125 132.226562 123.96875 130.796875 C 123.792969 128.460938 118.558594 132.023438 117.832031 129.382812 C 117.503906 128.1875 118.46875 126.464844 116.144531 126.640625 C 114.832031 126.738281 113.578125 126.957031 112.308594 126.550781 C 112.050781 126.46875 111.835938 126.179688 111.9375 125.902344 C 112.5 124.367188 111.320312 124.300781 110.148438 124.4375 C 109.582031 124.503906 109.007812 124.582031 108.4375 124.589844 C 107.789062 124.601562 107.660156 124.402344 107.820312 123.761719 C 108.074219 122.753906 108.875 121.296875 108.554688 120.230469 L 98.582031 124.175781 C 97.511719 124.601562 96.667969 126.109375 96.695312 127.546875 L 96.777344 132.34375 C 98.324219 132.527344 99.65625 130.882812 101.402344 130.980469 C 102.199219 131.023438 102.851562 132.007812 103.257812 132.582031 C 103.664062 133.152344 103.988281 133.773438 104.359375 134.363281 C 104.480469 134.554688 104.621094 134.671875 104.769531 134.738281 Z M 104.769531 134.738281 " fill-opacity="1" fill-rule="nonzero"/><path fill="#000000" d="M 228.347656 76.621094 C 228.921875 76.972656 229.628906 77.527344 229.652344 78.273438 C 229.675781 78.933594 229.527344 79.414062 229.382812 80.0625 C 228.933594 82.109375 232.082031 81.679688 232.917969 81.585938 C 234.871094 81.363281 235.175781 81.996094 235.132812 84.199219 C 235.074219 87.328125 239.308594 84.910156 240.464844 86.917969 C 240.96875 87.800781 240.441406 89.417969 241.429688 89.96875 C 242.507812 90.566406 245.96875 89.367188 247.027344 90.066406 C 248.21875 90.855469 247.890625 92.789062 249.855469 92.792969 C 250.992188 92.796875 252.359375 92.414062 253.464844 92.777344 C 254.515625 93.121094 255.078125 93.648438 255.691406 94.558594 C 256.054688 95.097656 256.136719 95.703125 256.160156 96.335938 L 261.722656 90.074219 L 229.34375 72.960938 C 229.289062 72.925781 229.234375 72.898438 229.175781 72.871094 C 228.878906 72.75 228.535156 72.738281 228.164062 72.882812 L 222.863281 74.789062 C 223.453125 76.652344 226.777344 75.664062 228.347656 76.621094 Z M 228.347656 76.621094 " fill-opacity="1" fill-rule="nonzero"/><path fill="#000000" d="M 133.402344 231.136719 C 132.5625 231.136719 131.699219 230.53125 131.320312 229.785156 C 130.847656 228.851562 130.773438 227.980469 130.789062 226.945312 C 130.839844 224.015625 127.59375 225.804688 126.082031 226.300781 C 125.402344 226.527344 124.292969 226.207031 123.914062 225.5625 C 122.929688 223.875 122.984375 221.699219 119.957031 222.21875 C 117.972656 222.558594 116.304688 222.269531 115.445312 220.25 C 115.03125 219.285156 114.503906 217.222656 112.671875 218.402344 C 112.128906 218.753906 111.707031 218.992188 111.082031 219.125 C 110.199219 219.308594 109.265625 218.75 108.707031 218.121094 C 107.621094 216.882812 108.136719 214.691406 105.898438 214.382812 C 104.425781 214.175781 103.308594 215.34375 101.847656 215.179688 C 99.800781 214.953125 99.3125 212.628906 98.167969 211.089844 L 98.269531 216.875 C 98.285156 217.75 98.621094 218.394531 99.125 218.667969 L 99.121094 218.671875 L 99.148438 218.6875 C 99.15625 218.691406 99.160156 218.691406 99.164062 218.695312 L 131.382812 236.769531 L 136.402344 231.121094 C 135.496094 231.03125 134.53125 231.136719 133.402344 231.136719 Z M 133.402344 231.136719 " fill-opacity="1" fill-rule="nonzero"/><path fill="#000000" d="M 131.476562 236.453125 L 98.472656 218.699219 C 98.078125 218.273438 97.847656 217.628906 97.835938 216.882812 L 96.261719 127.550781 C 96.230469 125.925781 97.179688 124.265625 98.421875 123.773438 L 228.003906 72.480469 C 228.460938 72.300781 228.925781 72.296875 229.34375 72.472656 C 229.425781 72.507812 229.5 72.546875 229.574219 72.59375 L 262.046875 90.363281 Z M 99.882812 218.601562 L 131.292969 235.355469 L 261.03125 90.199219 L 229.140625 73.34375 C 229.078125 73.304688 229.042969 73.289062 229.007812 73.273438 C 228.796875 73.183594 228.566406 73.1875 228.324219 73.285156 L 98.742188 124.582031 C 97.84375 124.933594 97.105469 126.289062 97.128906 127.535156 L 98.703125 216.867188 C 98.714844 217.546875 98.949219 218.078125 99.332031 218.289062 L 99.890625 218.59375 Z M 99.882812 218.601562 " fill-opacity="1" fill-rule="nonzero"/><path fill="#00bfc3" d="M 263.804688 182.257812 C 263.828125 183.695312 262.984375 185.203125 261.917969 185.625 L 132.671875 236.410156 C 131.605469 236.835938 130.648438 236.332031 130.621094 234.898438 L 128.777344 145.753906 C 128.753906 144.316406 129.597656 142.808594 130.667969 142.386719 L 260.144531 90.644531 C 261.214844 90.222656 262.542969 90.984375 262.566406 92.421875 Z M 263.804688 182.257812 " fill-opacity="1" fill-rule="nonzero"/><path fill="#000000" d="M 119.785156 227.164062 L 117.9375 142.296875 C 117.910156 140.667969 118.859375 139.007812 120.101562 138.515625 L 249.582031 86.777344 L 249.902344 87.582031 L 120.421875 139.320312 C 119.523438 139.675781 118.785156 141.03125 118.808594 142.277344 L 120.652344 227.144531 Z M 119.785156 227.164062 " fill-opacity="1" fill-rule="nonzero"/><g clip-path="url(#a439e50b04)"><path fill="#000000" d="M 262.238281 185.496094 L 132.65625 236.792969 C 131.410156 237.285156 130.375 236.324219 130.34375 234.648438 L 128.769531 145.320312 C 128.742188 143.648438 129.730469 141.886719 130.972656 141.390625 L 260.554688 90.097656 C 261.800781 89.605469 262.835938 90.566406 262.867188 92.238281 L 264.441406 181.570312 C 264.472656 183.242188 263.484375 185.003906 262.238281 185.496094 Z M 130.988281 142.257812 C 130.097656 142.613281 129.394531 143.871094 129.414062 145.066406 L 130.988281 234.394531 C 131.011719 235.589844 131.75 236.277344 132.640625 235.925781 L 262.222656 184.628906 C 263.113281 184.277344 263.816406 183.019531 263.796875 181.824219 L 262.222656 92.496094 C 262.199219 91.300781 261.460938 90.613281 260.570312 90.964844 Z M 130.988281 142.257812 " fill-opacity="1" fill-rule="nonzero"/></g><path fill="#ffd33b" d="M 223.191406 198.335938 C 223.214844 199.769531 222.371094 201.277344 221.300781 201.703125 L 172.949219 220.84375 C 171.882812 221.265625 170.992188 220.441406 170.96875 219.007812 L 169.929688 160.03125 C 169.902344 158.59375 170.75 157.085938 171.816406 156.664062 L 220.167969 137.523438 C 221.238281 137.097656 222.125 137.921875 222.148438 139.359375 Z M 223.191406 198.335938 " fill-opacity="1" fill-rule="nonzero"/><path fill="#000000" d="M 221.621094 201.574219 L 173.269531 220.714844 C 172.027344 221.207031 170.992188 220.246094 170.960938 218.574219 L 169.921875 159.597656 C 169.890625 157.921875 170.878906 156.164062 172.125 155.667969 L 220.476562 136.53125 C 221.71875 136.035156 222.757812 136.996094 222.785156 138.671875 L 223.828125 197.644531 C 223.855469 199.320312 222.867188 201.082031 221.621094 201.574219 Z M 172.140625 156.535156 C 171.25 156.886719 170.542969 158.148438 170.566406 159.34375 L 171.609375 218.316406 C 171.628906 219.511719 172.367188 220.199219 173.257812 219.847656 L 221.609375 200.707031 C 222.496094 200.355469 223.203125 199.097656 223.179688 197.902344 L 222.140625 138.925781 C 222.121094 137.730469 221.378906 137.046875 220.492188 137.398438 Z M 172.140625 156.535156 " fill-opacity="1" fill-rule="nonzero"/><path fill="#ff2273" d="M 216.679688 197.417969 L 178 212.730469 L 177.875 205.792969 L 216.558594 190.480469 Z M 216.679688 197.417969 " fill-opacity="1" fill-rule="nonzero"/><path fill="#000000" d="M 184.460938 211.042969 L 177.371094 213.851562 L 177.21875 205.179688 L 184.308594 202.371094 Z M 178 212.730469 L 183.800781 210.433594 L 183.679688 203.496094 L 177.875 205.792969 Z M 178 212.730469 " fill-opacity="1" fill-rule="nonzero"/><path fill="#000000" d="M 190.910156 208.492188 L 183.816406 211.300781 L 183.664062 202.625 L 190.757812 199.820312 Z M 184.445312 210.175781 L 190.25 207.878906 L 190.125 200.941406 L 184.324219 203.238281 Z M 184.445312 210.175781 " fill-opacity="1" fill-rule="nonzero"/><path fill="#000000" d="M 197.355469 205.941406 L 190.265625 208.746094 L 190.113281 200.074219 L 197.203125 197.269531 Z M 190.894531 207.625 L 196.695312 205.328125 L 196.574219 198.390625 L 190.769531 200.6875 Z M 190.894531 207.625 " fill-opacity="1" fill-rule="nonzero"/><path fill="#000000" d="M 203.800781 203.386719 L 196.710938 206.195312 L 196.558594 197.523438 L 203.648438 194.714844 Z M 197.339844 205.074219 L 203.140625 202.777344 L 203.019531 195.839844 L 197.21875 198.136719 Z M 197.339844 205.074219 " fill-opacity="1" fill-rule="nonzero"/><path fill="#000000" d="M 210.25 200.835938 L 203.15625 203.644531 L 203.003906 194.972656 L 210.097656 192.164062 Z M 203.789062 202.523438 L 209.589844 200.226562 L 209.46875 193.285156 L 203.664062 195.582031 Z M 203.789062 202.523438 " fill-opacity="1" fill-rule="nonzero"/><path fill="#000000" d="M 216.695312 198.285156 L 209.605469 201.09375 L 209.453125 192.417969 L 216.542969 189.613281 Z M 210.234375 199.96875 L 216.039062 197.671875 L 215.914062 190.734375 L 210.113281 193.03125 Z M 210.234375 199.96875 " fill-opacity="1" fill-rule="nonzero"/><path fill="#00bfc3" d="M 177.175781 199.714844 C 176.113281 200.136719 175.167969 199.332031 175.140625 197.902344 L 174.535156 163.398438 C 174.507812 161.96875 175.410156 160.433594 176.472656 160.011719 L 216.328125 144.238281 C 217.390625 143.816406 218.347656 144.617188 218.371094 146.046875 L 218.980469 180.550781 C 219.007812 181.980469 218.089844 183.519531 217.027344 183.941406 Z M 177.175781 199.714844 " fill-opacity="1" fill-rule="nonzero"/><path fill="#000000" d="M 216.953125 184.410156 L 177.34375 200.085938 C 176.140625 200.5625 175.171875 199.601562 175.140625 197.902344 L 174.535156 163.398438 C 174.503906 161.699219 175.421875 159.992188 176.628906 159.511719 L 216.238281 143.835938 C 217.425781 143.367188 218.339844 144.316406 218.371094 146.046875 L 218.980469 180.550781 C 219.011719 182.28125 218.140625 183.9375 216.953125 184.410156 Z M 176.644531 160.382812 C 175.785156 160.722656 175.15625 161.910156 175.175781 163.144531 L 175.785156 197.644531 C 175.808594 198.882812 176.472656 199.558594 177.328125 199.21875 L 216.9375 183.542969 C 217.882812 183.167969 218.355469 181.882812 218.335938 180.804688 L 217.726562 146.304688 C 217.707031 145.226562 217.195312 144.332031 216.253906 144.703125 Z M 176.644531 160.382812 " fill-opacity="1" fill-rule="nonzero"/><path fill="#ffffff" d="M 176.628906 168.835938 C 175.566406 169.257812 174.621094 168.449219 174.59375 167.019531 L 174.53125 163.394531 C 174.507812 161.964844 175.410156 160.429688 176.472656 160.007812 L 216.328125 144.234375 C 217.390625 143.8125 218.347656 144.613281 218.371094 146.046875 L 218.4375 149.667969 C 218.460938 151.097656 217.546875 152.640625 216.484375 153.0625 Z M 176.628906 168.835938 " fill-opacity="1" fill-rule="nonzero"/><path fill="#000000" d="M 216.410156 153.527344 L 176.796875 169.203125 C 175.59375 169.679688 174.625 168.71875 174.59375 167.019531 L 174.53125 163.394531 C 174.503906 161.691406 175.421875 159.984375 176.625 159.511719 L 216.238281 143.832031 C 217.425781 143.363281 218.339844 144.3125 218.371094 146.046875 L 218.4375 149.667969 C 218.464844 151.398438 217.59375 153.058594 216.410156 153.527344 Z M 176.640625 160.378906 C 175.785156 160.714844 175.15625 161.902344 175.175781 163.140625 L 175.242188 166.761719 C 175.265625 168 175.925781 168.675781 176.78125 168.335938 L 216.394531 152.660156 C 217.335938 152.285156 217.808594 151 217.792969 149.925781 L 217.726562 146.300781 C 217.707031 145.226562 217.195312 144.328125 216.253906 144.703125 Z M 176.640625 160.378906 " fill-opacity="1" fill-rule="nonzero"/><path fill="#ff2273" d="M 182.851562 190.5625 C 181.789062 190.984375 180.847656 190.175781 180.824219 188.746094 L 180.582031 175.074219 C 180.558594 173.644531 181.503906 172.042969 182.566406 171.621094 L 210.769531 160.457031 C 211.832031 160.035156 212.789062 160.882812 212.816406 162.316406 L 213.054688 175.984375 C 213.082031 177.414062 212.175781 178.953125 211.109375 179.375 Z M 182.851562 190.5625 " fill-opacity="1" fill-rule="nonzero"/><path fill="#000000" d="M 183.019531 190.933594 C 181.816406 191.410156 180.851562 190.449219 180.824219 188.746094 L 180.582031 175.074219 C 180.554688 173.441406 181.316406 172.117188 182.566406 171.621094 L 210.769531 160.457031 C 212.023438 159.960938 212.785156 160.65625 212.816406 162.316406 L 213.054688 175.984375 C 213.085938 177.742188 212.238281 179.367188 211.039062 179.839844 Z M 182.582031 172.488281 C 181.949219 172.738281 181.199219 173.347656 181.226562 174.820312 L 181.46875 188.492188 C 181.488281 189.730469 182.148438 190.402344 183.003906 190.066406 L 211.023438 178.972656 C 211.863281 178.640625 212.433594 177.515625 212.410156 176.242188 L 212.171875 162.570312 C 212.148438 161.386719 211.683594 160.96875 210.785156 161.324219 Z M 182.582031 172.488281 " fill-opacity="1" fill-rule="nonzero"/><path fill="#000000" d="M 190.289062 178.230469 C 190.335938 180.824219 188.808594 183.542969 186.882812 184.304688 C 184.957031 185.070312 183.355469 183.585938 183.308594 180.992188 C 183.261719 178.402344 184.789062 175.679688 186.71875 174.917969 C 188.644531 174.15625 190.242188 175.640625 190.289062 178.230469 Z M 190.289062 178.230469 " fill-opacity="1" fill-rule="nonzero"/><path fill="#ffd33b" d="M 186.898438 185.175781 C 186.769531 185.222656 186.644531 185.265625 186.519531 185.300781 C 186.164062 185.398438 185.894531 185.078125 185.917969 184.589844 C 185.941406 184.101562 186.25 183.625 186.605469 183.527344 C 186.953125 183.433594 187.3125 183.246094 187.644531 182.984375 C 187.988281 182.71875 188.347656 182.84375 188.453125 183.265625 C 188.558594 183.6875 188.367188 184.246094 188.027344 184.515625 C 187.664062 184.796875 187.28125 185.023438 186.898438 185.175781 Z M 183.894531 184.128906 C 183.679688 184.214844 183.464844 184.152344 183.339844 183.9375 C 183.058594 183.457031 182.859375 182.890625 182.753906 182.25 C 182.679688 181.804688 182.902344 181.261719 183.25 181.035156 C 183.601562 180.808594 183.941406 180.984375 184.015625 181.429688 C 184.089844 181.871094 184.226562 182.257812 184.417969 182.585938 C 184.613281 182.917969 184.53125 183.492188 184.234375 183.863281 C 184.128906 183.996094 184.011719 184.085938 183.894531 184.128906 Z M 190.101562 180.886719 C 190.023438 180.917969 189.941406 180.929688 189.867188 180.921875 C 189.53125 180.878906 189.355469 180.441406 189.476562 179.945312 C 189.597656 179.453125 189.652344 178.964844 189.644531 178.484375 C 189.636719 178.007812 189.917969 177.503906 190.273438 177.363281 C 190.628906 177.222656 190.925781 177.496094 190.933594 177.976562 C 190.945312 178.667969 190.863281 179.382812 190.691406 180.09375 C 190.597656 180.476562 190.359375 180.785156 190.101562 180.886719 Z M 184.175781 178.347656 C 184.019531 178.410156 183.863281 178.394531 183.738281 178.292969 C 183.46875 178.078125 183.4375 177.535156 183.671875 177.085938 C 184.007812 176.4375 184.40625 175.863281 184.859375 175.375 C 185.175781 175.03125 185.5625 175.050781 185.730469 175.417969 C 185.898438 175.78125 185.777344 176.351562 185.464844 176.695312 C 185.152344 177.03125 184.878906 177.429688 184.648438 177.875 C 184.523438 178.113281 184.351562 178.277344 184.175781 178.347656 Z M 189.332031 176.289062 C 189.15625 176.359375 188.980469 176.332031 188.851562 176.195312 C 188.605469 175.941406 188.320312 175.769531 188 175.683594 C 187.675781 175.59375 187.539062 175.128906 187.6875 174.636719 C 187.835938 174.144531 188.222656 173.8125 188.546875 173.902344 C 189.007812 174.023438 189.425781 174.277344 189.78125 174.648438 C 190.027344 174.90625 190.019531 175.460938 189.761719 175.890625 C 189.640625 176.089844 189.488281 176.226562 189.332031 176.289062 Z M 189.332031 176.289062 " fill-opacity="1" fill-rule="nonzero"/><path fill="#000000" d="M 210.332031 170.296875 C 210.378906 172.890625 208.851562 175.609375 206.925781 176.371094 C 205 177.132812 203.398438 175.652344 203.355469 173.058594 C 203.308594 170.464844 204.832031 167.746094 206.761719 166.984375 C 208.6875 166.222656 210.289062 167.703125 210.332031 170.296875 Z M 210.332031 170.296875 " fill-opacity="1" fill-rule="nonzero"/><path fill="#ffd33b" d="M 206.941406 177.238281 C 206.8125 177.289062 206.6875 177.332031 206.5625 177.367188 C 206.207031 177.464844 205.9375 177.144531 205.964844 176.65625 C 205.988281 176.167969 206.292969 175.691406 206.648438 175.59375 C 206.996094 175.496094 207.355469 175.3125 207.6875 175.050781 C 208.03125 174.785156 208.390625 174.910156 208.496094 175.332031 C 208.601562 175.753906 208.410156 176.3125 208.070312 176.578125 C 207.707031 176.863281 207.328125 177.085938 206.941406 177.238281 Z M 203.9375 176.195312 C 203.722656 176.28125 203.511719 176.21875 203.382812 176.003906 C 203.101562 175.523438 202.90625 174.957031 202.796875 174.316406 C 202.726562 173.871094 202.949219 173.328125 203.296875 173.101562 C 203.644531 172.875 203.988281 173.050781 204.0625 173.496094 C 204.132812 173.933594 204.269531 174.324219 204.460938 174.652344 C 204.65625 174.984375 204.574219 175.558594 204.277344 175.929688 C 204.171875 176.058594 204.054688 176.148438 203.9375 176.195312 Z M 210.144531 172.953125 C 210.066406 172.984375 209.984375 172.996094 209.910156 172.988281 C 209.574219 172.945312 209.398438 172.507812 209.519531 172.011719 C 209.640625 171.519531 209.695312 171.027344 209.6875 170.550781 C 209.679688 170.074219 209.960938 169.570312 210.316406 169.429688 C 210.671875 169.289062 210.96875 169.5625 210.976562 170.042969 C 210.988281 170.734375 210.90625 171.449219 210.734375 172.160156 C 210.640625 172.542969 210.402344 172.851562 210.144531 172.953125 Z M 204.21875 170.414062 C 204.066406 170.476562 203.90625 170.460938 203.78125 170.359375 C 203.511719 170.140625 203.484375 169.601562 203.714844 169.152344 C 204.050781 168.503906 204.449219 167.925781 204.902344 167.4375 C 205.21875 167.097656 205.605469 167.117188 205.777344 167.480469 C 205.941406 167.847656 205.824219 168.417969 205.507812 168.757812 C 205.199219 169.09375 204.921875 169.492188 204.691406 169.941406 C 204.570312 170.179688 204.394531 170.34375 204.21875 170.414062 Z M 209.375 168.355469 C 209.199219 168.425781 209.023438 168.398438 208.894531 168.261719 C 208.648438 168.007812 208.363281 167.832031 208.042969 167.746094 C 207.71875 167.660156 207.582031 167.191406 207.730469 166.703125 C 207.882812 166.210938 208.265625 165.878906 208.589844 165.96875 C 209.050781 166.089844 209.46875 166.34375 209.824219 166.714844 C 210.070312 166.972656 210.0625 167.527344 209.808594 167.957031 C 209.683594 168.15625 209.53125 168.292969 209.375 168.355469 Z M 209.375 168.355469 " fill-opacity="1" fill-rule="nonzero"/><path fill="#000000" d="M 201.363281 175.535156 L 192.339844 179.105469 L 192.261719 174.769531 L 201.289062 171.199219 Z M 201.363281 175.535156 " fill-opacity="1" fill-rule="nonzero"/><path fill="#ffd33b" d="M 198.140625 176.8125 L 195.5625 177.832031 L 195.484375 173.496094 L 198.0625 172.472656 Z M 198.140625 176.8125 " fill-opacity="1" fill-rule="nonzero"/><path fill="#ffd33b" d="M 167.398438 190.191406 C 167.621094 202.804688 160.203125 216.035156 150.828125 219.746094 C 141.453125 223.460938 133.671875 216.242188 133.449219 203.632812 C 133.226562 191.019531 140.644531 177.789062 150.019531 174.074219 C 159.398438 170.363281 167.175781 177.582031 167.398438 190.191406 Z M 167.398438 190.191406 " fill-opacity="1" fill-rule="nonzero"/><path fill="#000000" d="M 150.835938 220.179688 C 141.296875 223.957031 133.351562 216.589844 133.125 203.757812 C 132.898438 190.929688 140.476562 177.417969 150.011719 173.640625 C 159.550781 169.867188 167.496094 177.234375 167.722656 190.066406 C 167.949219 202.894531 160.371094 216.40625 150.835938 220.179688 Z M 150.027344 174.511719 C 140.847656 178.144531 133.550781 191.152344 133.769531 203.503906 C 133.988281 215.855469 141.636719 222.949219 150.820312 219.3125 C 160 215.679688 167.292969 202.671875 167.078125 190.320312 C 166.859375 177.96875 159.210938 170.875 150.027344 174.511719 Z M 150.027344 174.511719 " fill-opacity="1" fill-rule="nonzero"/><path fill="#000000" d="M 150.714844 213.355469 C 143.972656 216.023438 138.359375 210.820312 138.199219 201.75 C 138.039062 192.683594 143.394531 183.136719 150.132812 180.46875 C 156.875 177.800781 162.488281 183.007812 162.648438 192.074219 C 162.808594 201.140625 157.453125 210.6875 150.714844 213.355469 Z M 150.148438 181.335938 C 143.761719 183.863281 138.691406 192.90625 138.84375 201.496094 C 138.996094 210.085938 144.3125 215.015625 150.699219 212.488281 C 157.082031 209.960938 162.152344 200.917969 162.003906 192.328125 C 161.851562 183.738281 156.535156 178.808594 150.148438 181.335938 Z M 150.148438 181.335938 " fill-opacity="1" fill-rule="nonzero"/><path fill="#000000" d="M 155.679688 194.832031 C 155.746094 198.734375 153.449219 202.832031 150.546875 203.980469 C 147.648438 205.128906 145.238281 202.894531 145.167969 198.992188 C 145.101562 195.089844 147.398438 190.992188 150.300781 189.84375 C 153.199219 188.695312 155.609375 190.929688 155.679688 194.832031 Z M 155.679688 194.832031 " fill-opacity="1" fill-rule="nonzero"/><path fill="#ffd33b" d="M 260.234375 153.445312 C 260.457031 166.054688 253.039062 179.289062 243.664062 183 C 234.285156 186.710938 226.507812 179.496094 226.285156 166.882812 C 226.0625 154.269531 233.480469 141.039062 242.855469 137.328125 C 252.230469 133.617188 260.011719 140.832031 260.234375 153.445312 Z M 260.234375 153.445312 " fill-opacity="1" fill-rule="nonzero"/><path fill="#000000" d="M 243.671875 183.433594 C 234.132812 187.207031 226.1875 179.839844 225.960938 167.011719 C 225.734375 154.179688 233.3125 140.667969 242.847656 136.894531 C 252.386719 133.121094 260.332031 140.484375 260.558594 153.316406 C 260.78125 166.148438 253.207031 179.65625 243.671875 183.433594 Z M 242.863281 137.761719 C 233.683594 141.394531 226.390625 154.402344 226.605469 166.753906 C 226.824219 179.105469 234.472656 186.199219 243.65625 182.566406 C 252.835938 178.929688 260.128906 165.925781 259.914062 153.570312 C 259.695312 141.21875 252.046875 134.125 242.863281 137.761719 Z M 242.863281 137.761719 " fill-opacity="1" fill-rule="nonzero"/><path fill="#000000" d="M 243.550781 176.609375 C 236.808594 179.277344 231.195312 174.070312 231.035156 165.003906 C 230.875 155.9375 236.230469 146.386719 242.96875 143.71875 C 249.710938 141.050781 255.324219 146.257812 255.484375 155.324219 C 255.644531 164.390625 250.289062 173.9375 243.550781 176.609375 Z M 242.984375 144.585938 C 236.601562 147.113281 231.527344 156.140625 231.679688 164.734375 C 231.832031 173.324219 237.148438 178.308594 243.535156 175.710938 C 249.921875 173.117188 254.992188 164.15625 254.839844 155.566406 C 254.6875 146.976562 249.371094 142.058594 242.984375 144.585938 Z M 242.984375 144.585938 " fill-opacity="1" fill-rule="nonzero"/><path fill="#000000" d="M 248.515625 158.082031 C 248.582031 161.988281 246.285156 166.082031 243.382812 167.230469 C 240.480469 168.378906 238.074219 166.148438 238.003906 162.242188 C 237.9375 158.339844 240.234375 154.242188 243.136719 153.09375 C 246.039062 151.945312 248.445312 154.179688 248.515625 158.082031 Z M 248.515625 158.082031 " fill-opacity="1" fill-rule="nonzero"/><path fill="#000000" d="M 263.363281 120.425781 L 129.269531 173.507812 L 129.253906 172.640625 L 263.347656 119.558594 Z M 263.363281 120.425781 " fill-opacity="1" fill-rule="nonzero"/><path fill="#ff2273" d="M 247.632812 111.804688 C 247.65625 113.246094 246.8125 114.75 245.742188 115.175781 L 146.460938 154.476562 C 145.390625 154.898438 144.503906 154.074219 144.480469 152.640625 L 144.34375 144.835938 C 144.316406 143.398438 145.164062 141.890625 146.230469 141.46875 L 245.515625 102.164062 C 246.582031 101.742188 247.46875 102.566406 247.492188 104 Z M 247.632812 111.804688 " fill-opacity="1" fill-rule="nonzero"/><path fill="#000000" d="M 245.421875 115.300781 L 146.136719 154.601562 C 144.894531 155.09375 143.855469 154.132812 143.828125 152.460938 L 143.691406 144.65625 C 143.660156 142.980469 144.648438 141.21875 145.894531 140.726562 L 245.175781 101.425781 C 246.421875 100.933594 247.457031 101.894531 247.488281 103.570312 L 247.625 111.371094 C 247.652344 113.046875 246.664062 114.808594 245.421875 115.300781 Z M 145.90625 141.59375 C 145.019531 141.945312 144.3125 143.203125 144.332031 144.398438 L 144.472656 152.203125 C 144.492188 153.402344 145.234375 154.085938 146.121094 153.734375 L 245.40625 114.433594 C 246.292969 114.082031 247 112.824219 246.976562 111.628906 L 246.839844 103.824219 C 246.820312 102.625 246.078125 101.941406 245.191406 102.292969 Z M 145.90625 141.59375 " fill-opacity="1" fill-rule="nonzero"/><path fill="#000000" d="M 244.332031 108.746094 L 147.625 147.027344 C 147.449219 147.097656 147.300781 146.960938 147.296875 146.722656 C 147.292969 146.480469 147.433594 146.230469 147.613281 146.160156 L 244.316406 107.878906 C 244.492188 107.808594 244.640625 107.945312 244.648438 108.1875 C 244.648438 108.425781 244.507812 108.675781 244.332031 108.746094 Z M 244.332031 108.746094 " fill-opacity="1" fill-rule="nonzero"/><path fill="#ffd33b" d="M 241.882812 111.378906 C 241.953125 115.527344 239.515625 119.875 236.433594 121.09375 C 233.355469 122.3125 230.796875 119.941406 230.722656 115.796875 C 230.652344 111.652344 233.089844 107.304688 236.171875 106.085938 C 239.25 104.867188 241.808594 107.238281 241.882812 111.378906 Z M 241.882812 111.378906 " fill-opacity="1" fill-rule="nonzero"/><path fill="#000000" d="M 236.441406 121.527344 C 233.1875 122.816406 230.480469 120.300781 230.402344 115.925781 C 230.324219 111.546875 232.910156 106.9375 236.164062 105.652344 C 239.417969 104.363281 242.125 106.875 242.203125 111.253906 C 242.28125 115.632812 239.695312 120.238281 236.441406 121.527344 Z M 236.179688 106.519531 C 233.28125 107.664062 230.976562 111.769531 231.046875 115.667969 C 231.117188 119.566406 233.53125 121.804688 236.425781 120.660156 C 239.324219 119.511719 241.628906 115.40625 241.558594 111.507812 C 241.488281 107.609375 239.074219 105.371094 236.179688 106.519531 Z M 236.179688 106.519531 " fill-opacity="1" fill-rule="nonzero"/><path fill="#ff2273" d="M 141.378906 160.851562 C 141.40625 162.289062 140.558594 163.796875 139.492188 164.21875 L 134.976562 166.007812 C 133.910156 166.429688 133.023438 165.609375 132.996094 164.171875 L 132.859375 156.367188 C 132.835938 154.929688 133.679688 153.421875 134.75 152.996094 L 139.261719 151.210938 C 140.328125 150.789062 141.21875 151.609375 141.242188 153.046875 Z M 141.378906 160.851562 " fill-opacity="1" fill-rule="nonzero"/><path fill="#000000" d="M 139.167969 164.347656 L 134.65625 166.132812 C 133.410156 166.625 132.375 165.664062 132.34375 163.992188 L 132.207031 156.1875 C 132.175781 154.511719 133.164062 152.75 134.410156 152.257812 L 138.921875 150.472656 C 140.167969 149.980469 141.203125 150.941406 141.234375 152.613281 L 141.371094 160.421875 C 141.402344 162.09375 140.414062 163.855469 139.167969 164.347656 Z M 134.425781 153.125 C 133.539062 153.476562 132.832031 154.734375 132.855469 155.929688 L 132.992188 163.738281 C 133.011719 164.933594 133.753906 165.617188 134.640625 165.265625 L 139.152344 163.480469 C 140.042969 163.128906 140.746094 161.871094 140.726562 160.675781 L 140.589844 152.867188 C 140.566406 151.675781 139.828125 150.988281 138.9375 151.339844 Z M 134.425781 153.125 " fill-opacity="1" fill-rule="nonzero"/><path fill="#000000" d="M 141.101562 145.242188 C 141.113281 145.71875 140.832031 146.222656 140.476562 146.363281 L 133.382812 149.171875 C 133.027344 149.3125 132.730469 149.039062 132.722656 148.558594 L 132.675781 145.957031 C 132.667969 145.476562 132.949219 144.976562 133.304688 144.835938 L 140.398438 142.027344 C 140.753906 141.886719 141.050781 142.160156 141.058594 142.640625 Z M 141.101562 145.242188 " fill-opacity="1" fill-rule="nonzero"/><path fill="#ffd33b" d="M 137.425781 145.351562 C 137.441406 146.105469 136.996094 146.894531 136.4375 147.117188 C 135.878906 147.339844 135.414062 146.90625 135.402344 146.15625 C 135.386719 145.402344 135.832031 144.613281 136.390625 144.390625 C 136.949219 144.167969 137.414062 144.601562 137.425781 145.351562 Z M 137.425781 145.351562 " fill-opacity="1" fill-rule="nonzero"/><path fill="#ff2273" d="M 260.003906 113.894531 C 260.027344 115.332031 259.183594 116.839844 258.113281 117.261719 L 253.601562 119.050781 C 252.535156 119.472656 251.644531 118.648438 251.621094 117.214844 L 251.484375 109.410156 C 251.457031 107.972656 252.304688 106.464844 253.371094 106.042969 L 257.886719 104.253906 C 258.953125 103.832031 259.839844 104.652344 259.863281 106.089844 Z M 260.003906 113.894531 " fill-opacity="1" fill-rule="nonzero"/><path fill="#000000" d="M 257.792969 117.390625 L 253.277344 119.175781 C 252.035156 119.671875 251 118.707031 250.96875 117.035156 L 250.832031 109.230469 C 250.800781 107.554688 251.789062 105.792969 253.035156 105.300781 L 257.546875 103.515625 C 258.789062 103.023438 259.828125 103.984375 259.855469 105.65625 L 259.996094 113.464844 C 260.023438 115.136719 259.035156 116.898438 257.792969 117.390625 Z M 253.050781 106.167969 C 252.160156 106.519531 251.453125 107.777344 251.476562 108.972656 L 251.613281 116.78125 C 251.636719 117.976562 252.375 118.660156 253.261719 118.308594 L 257.777344 116.523438 C 258.664062 116.171875 259.371094 114.914062 259.351562 113.71875 L 259.210938 105.914062 C 259.191406 104.71875 258.449219 104.03125 257.5625 104.382812 Z M 253.050781 106.167969 " fill-opacity="1" fill-rule="nonzero"/><path fill="#000000" d="M 259.726562 98.285156 C 259.734375 98.765625 259.453125 99.265625 259.097656 99.40625 L 252.007812 102.214844 C 251.648438 102.355469 251.355469 102.082031 251.347656 101.601562 L 251.300781 99 C 251.292969 98.523438 251.574219 98.019531 251.929688 97.878906 L 259.023438 95.070312 C 259.378906 94.929688 259.671875 95.203125 259.679688 95.683594 Z M 259.726562 98.285156 " fill-opacity="1" fill-rule="nonzero"/><path fill="#ffd33b" d="M 256.003906 98.414062 C 256.015625 99.167969 255.570312 99.957031 255.011719 100.179688 C 254.453125 100.402344 253.988281 99.96875 253.976562 99.21875 C 253.964844 98.464844 254.40625 97.675781 254.964844 97.453125 C 255.523438 97.230469 255.988281 97.664062 256.003906 98.414062 Z M 256.003906 98.414062 " fill-opacity="1" fill-rule="nonzero"/><path fill="#ffd33b" d="M 188.460938 143.273438 C 188.496094 145.132812 187.402344 147.082031 186.019531 147.628906 C 184.636719 148.175781 183.492188 147.113281 183.457031 145.257812 C 183.425781 143.394531 184.519531 141.445312 185.902344 140.898438 C 187.28125 140.351562 188.429688 141.414062 188.460938 143.273438 Z M 188.460938 143.273438 " fill-opacity="1" fill-rule="nonzero"/><path fill="#000000" d="M 186.027344 148.0625 C 184.46875 148.679688 183.171875 147.476562 183.136719 145.382812 C 183.097656 143.289062 184.335938 141.082031 185.894531 140.464844 C 187.449219 139.847656 188.746094 141.050781 188.785156 143.148438 C 188.820312 145.242188 187.585938 147.449219 186.027344 148.0625 Z M 185.90625 141.332031 C 184.707031 141.808594 183.75 143.511719 183.78125 145.128906 C 183.808594 146.742188 184.808594 147.671875 186.011719 147.195312 C 187.214844 146.722656 188.167969 145.019531 188.140625 143.402344 C 188.109375 141.785156 187.109375 140.855469 185.90625 141.332031 Z M 185.90625 141.332031 " fill-opacity="1" fill-rule="nonzero"/><path fill="#ffd33b" d="M 154.9375 156.546875 C 154.972656 158.402344 153.875 160.355469 152.496094 160.902344 C 151.113281 161.449219 149.96875 160.382812 149.933594 158.523438 C 149.902344 156.667969 150.996094 154.714844 152.378906 154.171875 C 153.757812 153.621094 154.902344 154.6875 154.9375 156.546875 Z M 154.9375 156.546875 " fill-opacity="1" fill-rule="nonzero"/><path fill="#000000" d="M 152.503906 161.335938 C 150.945312 161.949219 149.648438 160.746094 149.613281 158.652344 C 149.574219 156.558594 150.8125 154.351562 152.367188 153.734375 C 153.925781 153.121094 155.222656 154.324219 155.261719 156.417969 C 155.296875 158.511719 154.058594 160.71875 152.503906 161.335938 Z M 152.382812 154.605469 C 151.183594 155.078125 150.226562 156.78125 150.257812 158.398438 C 150.285156 160.015625 151.285156 160.945312 152.488281 160.46875 C 153.691406 159.992188 154.644531 158.289062 154.613281 156.671875 C 154.585938 155.054688 153.585938 154.128906 152.382812 154.605469 Z M 152.382812 154.605469 " fill-opacity="1" fill-rule="nonzero"/><path fill="#000000" d="M 153.722656 157.027344 C 153.738281 157.984375 153.175781 158.984375 152.464844 159.265625 C 151.753906 159.546875 151.164062 159 151.148438 158.042969 C 151.132812 157.089844 151.695312 156.085938 152.40625 155.804688 C 153.117188 155.523438 153.707031 156.070312 153.722656 157.027344 Z M 153.722656 157.027344 " fill-opacity="1" fill-rule="nonzero"/><path fill="#000000" d="M 185.96875 149.316406 C 185.613281 149.457031 185.320312 149.183594 185.308594 148.703125 L 185.171875 140.898438 C 185.164062 140.417969 185.445312 139.917969 185.800781 139.773438 C 186.15625 139.632812 186.453125 139.910156 186.460938 140.386719 L 186.597656 148.191406 C 186.609375 148.671875 186.328125 149.175781 185.96875 149.316406 Z M 185.96875 149.316406 " fill-opacity="1" fill-rule="nonzero"/><path fill="#ffd33b" d="M 198.710938 139.21875 C 198.746094 141.078125 197.648438 143.027344 196.269531 143.574219 C 194.886719 144.121094 193.742188 143.058594 193.707031 141.199219 C 193.675781 139.339844 194.769531 137.386719 196.152344 136.839844 C 197.53125 136.296875 198.679688 137.359375 198.710938 139.21875 Z M 198.710938 139.21875 " fill-opacity="1" fill-rule="nonzero"/><path fill="#000000" d="M 196.277344 144.007812 C 194.71875 144.625 193.421875 143.421875 193.386719 141.324219 C 193.347656 139.230469 194.585938 137.023438 196.140625 136.40625 C 197.699219 135.792969 198.996094 136.996094 199.035156 139.089844 C 199.070312 141.183594 197.832031 143.390625 196.277344 144.007812 Z M 196.15625 137.273438 C 194.957031 137.75 194 139.453125 194.03125 141.070312 C 194.058594 142.6875 195.058594 143.613281 196.261719 143.140625 C 197.464844 142.664062 198.417969 140.960938 198.386719 139.34375 C 198.359375 137.726562 197.359375 136.800781 196.15625 137.273438 Z M 196.15625 137.273438 " fill-opacity="1" fill-rule="nonzero"/><path fill="#000000" d="M 196.285156 145.230469 C 195.929688 145.371094 195.632812 145.097656 195.625 144.621094 L 195.488281 136.816406 C 195.480469 136.335938 195.761719 135.832031 196.117188 135.691406 C 196.472656 135.550781 196.769531 135.824219 196.777344 136.304688 L 196.914062 144.109375 C 196.921875 144.589844 196.640625 145.089844 196.285156 145.230469 Z M 196.285156 145.230469 " fill-opacity="1" fill-rule="nonzero"/><path fill="#ffd33b" d="M 208.1875 133.144531 C 209.1875 134.070312 209.226562 136.199219 208.269531 137.902344 C 207.316406 139.605469 205.734375 140.230469 204.734375 139.300781 C 203.734375 138.375 203.695312 136.246094 204.648438 134.542969 C 205.601562 132.84375 207.1875 132.214844 208.1875 133.144531 Z M 208.1875 133.144531 " fill-opacity="1" fill-rule="nonzero"/><path fill="#000000" d="M 206.527344 140.023438 C 205.773438 140.320312 205.054688 140.207031 204.511719 139.699219 C 203.382812 138.65625 203.339844 136.246094 204.414062 134.328125 C 204.9375 133.398438 205.636719 132.722656 206.390625 132.425781 C 207.148438 132.125 207.863281 132.242188 208.410156 132.746094 C 208.957031 133.253906 209.265625 134.09375 209.285156 135.105469 C 209.300781 136.121094 209.023438 137.191406 208.503906 138.117188 C 207.984375 139.046875 207.28125 139.722656 206.527344 140.023438 Z M 206.40625 133.292969 C 205.828125 133.523438 205.285156 134.042969 204.882812 134.761719 C 204.054688 136.238281 204.085938 138.101562 204.957031 138.90625 C 205.796875 139.6875 207.234375 139.121094 208.039062 137.6875 C 208.441406 136.96875 208.652344 136.144531 208.640625 135.359375 C 208.625 134.578125 208.386719 133.929688 207.964844 133.539062 C 207.542969 133.148438 206.988281 133.0625 206.40625 133.292969 Z M 206.40625 133.292969 " fill-opacity="1" fill-rule="nonzero"/><path fill="#000000" d="M 208.625 139.316406 C 208.457031 139.382812 208.292969 139.363281 208.164062 139.242188 L 203.960938 135.347656 C 203.707031 135.109375 203.695312 134.558594 203.941406 134.121094 C 204.1875 133.683594 204.59375 133.523438 204.851562 133.761719 L 209.054688 137.65625 C 209.308594 137.894531 209.320312 138.441406 209.074219 138.882812 C 208.953125 139.101562 208.789062 139.25 208.625 139.316406 Z M 208.625 139.316406 " fill-opacity="1" fill-rule="nonzero"/><path fill="#000000" d="M 176.914062 151.152344 L 174.335938 152.171875 L 174.210938 145.234375 L 176.792969 144.214844 Z M 176.914062 151.152344 " fill-opacity="1" fill-rule="nonzero"/><path fill="#000000" d="M 160.027344 150.851562 L 160.058594 152.585938 L 157.480469 153.605469 L 157.449219 151.871094 Z M 160.027344 150.851562 " fill-opacity="1" fill-rule="nonzero"/><path fill="#ffd33b" d="M 247.15625 121.601562 L 222.011719 131.554688 C 221.476562 131.765625 221.035156 131.355469 221.023438 130.636719 C 221.007812 129.917969 221.433594 129.164062 221.964844 128.953125 L 247.109375 119 C 247.644531 118.789062 248.085938 119.199219 248.097656 119.917969 C 248.113281 120.636719 247.6875 121.390625 247.15625 121.601562 Z M 247.15625 121.601562 " fill-opacity="1" fill-rule="nonzero"/><path fill="#000000" d="M 165.832031 148.554688 L 165.863281 150.289062 L 163.28125 151.308594 L 163.253906 149.574219 Z M 165.832031 148.554688 " fill-opacity="1" fill-rule="nonzero"/><path fill="#000000" d="M 218.175781 134.820312 L 215.59375 135.839844 L 215.472656 128.902344 L 218.050781 127.882812 Z M 218.175781 134.820312 " fill-opacity="1" fill-rule="nonzero"/><path fill="#00bfc3" d="M 222.144531 81.457031 C 221.773438 80.574219 220.753906 80.160156 219.871094 80.535156 L 137.484375 115.242188 C 137.3125 115.125 137.113281 115.039062 136.890625 115.039062 C 136.296875 115.039062 135.816406 115.519531 135.816406 116.113281 C 135.816406 116.707031 136.296875 117.1875 136.890625 117.1875 C 137.359375 117.1875 137.75 116.878906 137.894531 116.457031 L 221.179688 83.746094 C 221.191406 83.742188 221.207031 83.734375 221.21875 83.730469 C 222.101562 83.359375 222.515625 82.339844 222.144531 81.457031 Z M 222.144531 81.457031 " fill-opacity="1" fill-rule="nonzero"/><path fill="#000000" d="M 220.542969 80.398438 C 221.222656 80.398438 221.867188 80.792969 222.144531 81.457031 C 222.515625 82.339844 222.101562 83.359375 221.21875 83.730469 C 221.207031 83.734375 221.191406 83.742188 221.179688 83.746094 L 137.894531 116.457031 C 137.75 116.878906 137.359375 117.183594 136.886719 117.183594 C 136.296875 117.183594 135.816406 116.703125 135.816406 116.109375 C 135.816406 115.519531 136.296875 115.039062 136.886719 115.039062 C 137.113281 115.039062 137.308594 115.125 137.484375 115.242188 L 219.871094 80.53125 C 220.09375 80.441406 220.320312 80.398438 220.542969 80.398438 M 220.542969 79.53125 C 220.195312 79.53125 219.859375 79.597656 219.535156 79.734375 L 137.515625 114.285156 C 137.3125 114.210938 137.101562 114.171875 136.886719 114.171875 C 135.816406 114.171875 134.949219 115.042969 134.949219 116.113281 C 134.949219 117.183594 135.820312 118.050781 136.886719 118.050781 C 137.5625 118.050781 138.175781 117.699219 138.523438 117.140625 L 221.496094 84.554688 L 221.503906 84.546875 L 221.554688 84.527344 C 222.195312 84.257812 222.691406 83.753906 222.957031 83.113281 C 223.214844 82.46875 223.210938 81.761719 222.941406 81.121094 C 222.535156 80.152344 221.59375 79.53125 220.542969 79.53125 Z M 220.542969 79.53125 " fill-opacity="1" fill-rule="nonzero"/><path fill="#000000" d="M 212.699219 87.488281 C 211.84375 87.488281 211.035156 86.980469 210.691406 86.140625 C 210.238281 85.035156 210.769531 83.765625 211.878906 83.3125 L 219.691406 80.125 C 220.800781 79.671875 222.066406 80.207031 222.519531 81.3125 C 222.972656 82.421875 222.441406 83.6875 221.332031 84.140625 L 213.519531 87.328125 C 213.25 87.4375 212.972656 87.488281 212.699219 87.488281 Z M 212.699219 87.488281 " fill-opacity="1" fill-rule="nonzero"/><path fill="#000000" d="M 129.355469 173.34375 L 118.550781 167.578125 L 118.957031 166.8125 L 129.765625 172.578125 Z M 129.355469 173.34375 " fill-opacity="1" fill-rule="nonzero"/><g clip-path="url(#583427a4fb)"><path fill="#ffd33b" d="M 227.902344 90.71875 L 227.160156 59.113281 L 132.675781 96.425781 L 133.496094 129.9375 C 133.496094 129.9375 132.679688 130.855469 130.5625 130.855469 C 128.445312 130.855469 127.597656 130.082031 127.597656 130.082031 L 126.726562 94.523438 C 126.699219 93.285156 127.441406 92.152344 128.59375 91.699219 L 228.925781 52.078125 C 229.824219 51.722656 230.835938 51.828125 231.640625 52.359375 C 232.441406 52.894531 232.933594 53.785156 232.957031 54.75 L 233.800781 90.582031 C 233.800781 90.582031 232.464844 91.363281 230.722656 91.363281 C 228.980469 91.363281 227.902344 90.71875 227.902344 90.71875 Z M 227.902344 90.71875 " fill-opacity="1" fill-rule="nonzero"/></g><g clip-path="url(#be38510358)"><path fill="#000000" d="M 130.5625 131.289062 C 128.300781 131.289062 127.34375 130.4375 127.304688 130.402344 L 127.167969 130.277344 L 126.296875 94.53125 C 126.261719 93.117188 127.121094 91.816406 128.433594 91.296875 L 228.765625 51.671875 C 229.789062 51.269531 230.96875 51.394531 231.878906 52 C 232.800781 52.609375 233.367188 53.632812 233.390625 54.738281 L 234.238281 90.828125 L 234.019531 90.957031 C 233.960938 90.992188 232.5625 91.796875 230.722656 91.796875 C 228.882812 91.796875 227.726562 91.121094 227.679688 91.09375 L 227.472656 90.96875 L 226.738281 59.746094 L 133.117188 96.71875 L 133.933594 130.101562 L 133.820312 130.226562 C 133.78125 130.269531 132.847656 131.289062 130.5625 131.289062 Z M 128.027344 129.855469 C 128.320312 130.035156 129.117188 130.421875 130.5625 130.421875 C 132.027344 130.421875 132.785156 129.960938 133.058594 129.746094 L 132.234375 96.132812 L 132.515625 96.023438 L 227.578125 58.484375 L 228.328125 90.449219 C 228.699219 90.617188 229.550781 90.929688 230.722656 90.929688 C 231.921875 90.929688 232.929688 90.523438 233.359375 90.320312 L 232.523438 54.761719 C 232.503906 53.9375 232.082031 53.175781 231.398438 52.722656 C 230.722656 52.273438 229.84375 52.179688 229.082031 52.480469 L 128.753906 92.101562 C 127.777344 92.488281 127.136719 93.457031 127.160156 94.511719 Z M 128.027344 129.855469 " fill-opacity="1" fill-rule="nonzero"/></g><path fill="#ffd33b" d="M 215.792969 104.570312 C 210.941406 106.476562 204.070312 106.375 200.453125 104.34375 C 198.964844 103.507812 198.257812 102.476562 198.277344 101.421875 C 198.289062 100.746094 198.285156 98.140625 198.285156 98.140625 L 220.195312 97.109375 C 220.195312 97.109375 220.085938 99.132812 220.1875 100.09375 C 220.253906 100.753906 220.03125 101.433594 219.53125 102.085938 C 218.824219 103.007812 217.566406 103.875 215.792969 104.570312 Z M 215.792969 104.570312 " fill-opacity="1" fill-rule="nonzero"/><path fill="#000000" d="M 208.007812 106.371094 C 204.894531 106.371094 202.132812 105.785156 200.242188 104.722656 C 198.230469 103.59375 197.828125 102.300781 197.84375 101.414062 C 197.855469 100.738281 197.851562 98.140625 197.851562 98.140625 C 197.851562 97.910156 198.035156 97.71875 198.265625 97.707031 L 220.175781 96.675781 C 220.300781 96.675781 220.417969 96.714844 220.503906 96.804688 C 220.589844 96.890625 220.632812 97.011719 220.628906 97.132812 C 220.628906 97.152344 220.523438 99.132812 220.617188 100.046875 C 220.695312 100.816406 220.441406 101.613281 219.875 102.347656 C 219.097656 103.363281 217.738281 104.273438 215.949219 104.976562 C 213.660156 105.875 210.839844 106.371094 208.007812 106.371094 Z M 198.71875 98.554688 C 198.722656 99.320312 198.71875 100.921875 198.710938 101.429688 C 198.691406 102.363281 199.367188 103.238281 200.664062 103.96875 C 202.40625 104.941406 205.082031 105.503906 208.007812 105.503906 C 210.734375 105.503906 213.441406 105.03125 215.632812 104.167969 C 217.277344 103.523438 218.507812 102.710938 219.1875 101.820312 C 219.621094 101.257812 219.8125 100.6875 219.753906 100.136719 C 219.683594 99.4375 219.714844 98.234375 219.742188 97.566406 Z M 198.71875 98.554688 " fill-opacity="1" fill-rule="nonzero"/><path fill="#ffd33b" d="M 215.792969 101.292969 C 210.941406 103.199219 204.070312 103.097656 200.453125 101.066406 C 196.832031 99.035156 197.832031 95.847656 202.683594 93.941406 C 207.535156 92.039062 214.402344 92.140625 218.023438 94.167969 C 221.640625 96.199219 220.644531 99.390625 215.792969 101.292969 Z M 215.792969 101.292969 " fill-opacity="1" fill-rule="nonzero"/><path fill="#000000" d="M 208.007812 103.089844 C 204.894531 103.089844 202.132812 102.507812 200.242188 101.445312 C 198.609375 100.527344 197.761719 99.304688 197.851562 98 C 197.96875 96.285156 199.671875 94.660156 202.527344 93.539062 C 204.816406 92.636719 207.636719 92.144531 210.464844 92.144531 C 213.582031 92.144531 216.339844 92.726562 218.234375 93.789062 C 219.863281 94.707031 220.714844 95.929688 220.625 97.234375 C 220.507812 98.949219 218.800781 100.574219 215.949219 101.695312 C 213.660156 102.597656 210.839844 103.089844 208.007812 103.089844 Z M 210.464844 93.011719 C 207.742188 93.011719 205.035156 93.484375 202.84375 94.347656 C 200.351562 95.324219 198.808594 96.710938 198.714844 98.058594 C 198.648438 99.027344 199.324219 99.9375 200.664062 100.6875 C 202.40625 101.664062 205.082031 102.226562 208.007812 102.226562 C 210.734375 102.226562 213.441406 101.75 215.632812 100.890625 C 218.125 99.910156 219.667969 98.523438 219.761719 97.175781 C 219.828125 96.210938 219.152344 95.300781 217.808594 94.546875 C 216.070312 93.570312 213.394531 93.011719 210.464844 93.011719 Z M 210.464844 93.011719 " fill-opacity="1" fill-rule="nonzero"/><path fill="#ffffff" d="M 141.824219 173.480469 C 141.804688 173.0625 141.597656 172.65625 141.179688 172.429688 C 140.363281 171.984375 139.285156 172.425781 138.460938 172.632812 C 137.679688 172.835938 136.917969 173.09375 136.1875 173.425781 C 135.492188 173.738281 134.78125 174.09375 134.242188 174.644531 C 133.640625 175.257812 133.347656 176.070312 133.1875 176.898438 C 132.941406 178.167969 132.878906 179.476562 132.914062 180.769531 C 132.941406 181.800781 132.75 183.628906 134.078125 183.953125 C 135.363281 184.273438 135.691406 182.996094 135.898438 182.054688 C 136.179688 180.792969 136.378906 179.507812 136.617188 178.238281 C 136.703125 177.773438 136.8125 177.300781 137.191406 176.984375 C 137.585938 176.65625 138.125 176.484375 138.570312 176.242188 C 139.460938 175.753906 140.371094 175.277344 141.214844 174.710938 C 141.628906 174.433594 141.84375 173.945312 141.824219 173.480469 Z M 141.824219 173.480469 " fill-opacity="1" fill-rule="nonzero"/><path fill="#000000" d="M 134.453125 184.4375 C 134.300781 184.4375 134.136719 184.414062 133.972656 184.375 C 132.480469 184.007812 132.484375 182.3125 132.484375 181.1875 C 132.484375 181.042969 132.484375 180.902344 132.480469 180.777344 C 132.441406 179.296875 132.53125 178 132.761719 176.816406 C 132.972656 175.742188 133.355469 174.933594 133.929688 174.339844 C 134.535156 173.722656 135.320312 173.339844 136.007812 173.03125 C 136.738281 172.699219 137.527344 172.425781 138.351562 172.214844 C 138.484375 172.183594 138.621094 172.140625 138.761719 172.101562 C 139.597656 171.863281 140.667969 171.65625 141.386719 172.046875 C 141.914062 172.335938 142.230469 172.851562 142.257812 173.460938 C 142.28125 174.105469 141.976562 174.722656 141.453125 175.070312 C 140.71875 175.566406 139.933594 175.992188 139.171875 176.40625 L 138.777344 176.621094 C 138.617188 176.710938 138.445312 176.789062 138.273438 176.867188 C 137.96875 177.007812 137.683594 177.136719 137.46875 177.320312 C 137.203125 177.535156 137.121094 177.898438 137.042969 178.316406 C 136.96875 178.714844 136.894531 179.113281 136.824219 179.515625 C 136.671875 180.394531 136.515625 181.277344 136.320312 182.148438 C 136.144531 182.949219 135.8125 184.4375 134.453125 184.4375 Z M 140.351562 172.671875 C 139.925781 172.671875 139.453125 172.804688 139 172.9375 C 138.851562 172.976562 138.707031 173.019531 138.570312 173.054688 C 137.792969 173.253906 137.050781 173.511719 136.363281 173.820312 C 135.75 174.097656 135.050781 174.4375 134.550781 174.949219 C 134.089844 175.421875 133.792969 176.066406 133.613281 176.980469 C 133.398438 178.101562 133.308594 179.335938 133.347656 180.757812 C 133.351562 180.890625 133.351562 181.035156 133.351562 181.1875 C 133.351562 182.359375 133.414062 183.34375 134.179688 183.53125 C 134.933594 183.714844 135.214844 183.132812 135.472656 181.960938 C 135.664062 181.101562 135.820312 180.230469 135.972656 179.363281 C 136.042969 178.960938 136.113281 178.558594 136.1875 178.15625 C 136.289062 177.613281 136.429688 177.050781 136.914062 176.652344 C 137.21875 176.398438 137.570312 176.234375 137.910156 176.078125 C 138.066406 176.007812 138.21875 175.9375 138.363281 175.859375 L 138.757812 175.644531 C 139.5 175.242188 140.269531 174.820312 140.972656 174.351562 C 141.242188 174.167969 141.40625 173.839844 141.390625 173.496094 C 141.382812 173.324219 141.316406 173 140.96875 172.808594 C 140.800781 172.714844 140.597656 172.671875 140.351562 172.671875 Z M 140.351562 172.671875 " fill-opacity="1" fill-rule="nonzero"/><path fill="#ffffff" d="M 251.484375 182.675781 C 251.503906 183.09375 251.710938 183.496094 252.128906 183.726562 C 252.941406 184.171875 254.027344 183.730469 254.847656 183.519531 C 255.625 183.320312 256.390625 183.0625 257.121094 182.730469 C 257.816406 182.417969 258.527344 182.058594 259.066406 181.511719 C 259.664062 180.894531 259.960938 180.085938 260.121094 179.257812 C 260.367188 177.984375 260.429688 176.679688 260.394531 175.386719 C 260.367188 174.355469 260.558594 172.527344 259.234375 172.199219 C 257.945312 171.882812 257.617188 173.160156 257.410156 174.097656 C 257.128906 175.363281 256.929688 176.644531 256.691406 177.917969 C 256.605469 178.382812 256.496094 178.855469 256.117188 179.167969 C 255.722656 179.5 255.1875 179.667969 254.738281 179.914062 C 253.847656 180.402344 252.9375 180.875 252.09375 181.445312 C 251.679688 181.722656 251.464844 182.207031 251.484375 182.675781 Z M 251.484375 182.675781 " fill-opacity="1" fill-rule="nonzero"/><path fill="#000000" d="M 252.957031 184.351562 C 252.566406 184.351562 252.21875 184.269531 251.921875 184.105469 C 251.394531 183.820312 251.078125 183.304688 251.050781 182.695312 C 251.023438 182.050781 251.332031 181.433594 251.855469 181.082031 C 252.589844 180.585938 253.378906 180.160156 254.144531 179.746094 L 254.53125 179.535156 C 254.691406 179.445312 254.863281 179.367188 255.035156 179.289062 C 255.339844 179.148438 255.625 179.015625 255.839844 178.835938 C 256.101562 178.621094 256.1875 178.257812 256.265625 177.839844 C 256.335938 177.453125 256.40625 177.066406 256.476562 176.679688 C 256.628906 175.800781 256.792969 174.894531 256.988281 174.007812 C 257.164062 173.207031 257.496094 171.71875 258.855469 171.71875 C 259.007812 171.71875 259.171875 171.742188 259.335938 171.78125 C 260.828125 172.148438 260.824219 173.914062 260.824219 174.972656 C 260.824219 175.117188 260.824219 175.253906 260.828125 175.378906 C 260.867188 176.859375 260.773438 178.15625 260.546875 179.339844 C 260.339844 180.410156 259.957031 181.21875 259.375 181.816406 C 258.773438 182.429688 257.988281 182.816406 257.300781 183.125 C 256.570312 183.457031 255.78125 183.730469 254.953125 183.941406 C 254.824219 183.972656 254.691406 184.011719 254.550781 184.054688 C 254.058594 184.191406 253.507812 184.351562 252.957031 184.351562 Z M 258.855469 172.585938 C 258.300781 172.585938 258.058594 173.175781 257.835938 174.195312 C 257.640625 175.0625 257.484375 175.960938 257.328125 176.828125 C 257.261719 177.21875 257.191406 177.609375 257.117188 177.996094 C 257.039062 178.425781 256.917969 179.070312 256.394531 179.503906 C 256.089844 179.757812 255.738281 179.917969 255.398438 180.074219 C 255.242188 180.144531 255.089844 180.214844 254.949219 180.296875 L 254.558594 180.507812 C 253.8125 180.910156 253.042969 181.332031 252.335938 181.804688 C 252.0625 181.988281 251.902344 182.3125 251.917969 182.65625 C 251.925781 182.835938 251.992188 183.15625 252.335938 183.347656 C 252.804688 183.601562 253.59375 183.425781 254.308594 183.21875 C 254.457031 183.175781 254.601562 183.132812 254.742188 183.101562 C 255.519531 182.902344 256.261719 182.644531 256.945312 182.335938 C 257.558594 182.058594 258.257812 181.714844 258.753906 181.207031 C 259.210938 180.738281 259.519531 180.074219 259.695312 179.175781 C 259.910156 178.054688 260 176.820312 259.960938 175.398438 C 259.957031 175.265625 259.957031 175.125 259.957031 174.972656 C 259.957031 173.796875 259.898438 172.8125 259.128906 172.625 C 259.03125 172.597656 258.9375 172.585938 258.855469 172.585938 Z M 258.855469 172.585938 " fill-opacity="1" fill-rule="nonzero"/><path fill="#00bfc3" d="M 195.96875 107.285156 C 196.164062 107.332031 196.332031 107.539062 196.335938 107.746094 L 196.40625 111.425781 C 196.410156 111.632812 196.261719 111.859375 196.070312 111.9375 L 190.5625 114.140625 C 190.371094 114.214844 190.054688 114.238281 189.855469 114.1875 L 180.320312 111.828125 C 180.121094 111.777344 179.980469 111.570312 179.980469 111.367188 L 179.980469 107.773438 C 179.980469 107.570312 180.113281 107.335938 180.300781 107.253906 L 185.679688 104.945312 C 185.863281 104.867188 186.175781 104.839844 186.375 104.890625 Z M 195.96875 107.285156 " fill-opacity="1" fill-rule="nonzero"/><path fill="#000000" d="M 189.957031 114.5625 C 189.703125 114.5625 189.464844 114.539062 189.269531 114.492188 L 180.730469 112.367188 C 180.070312 112.203125 179.609375 111.546875 179.609375 110.871094 L 179.609375 108.269531 C 179.609375 107.625 180.023438 106.917969 180.617188 106.660156 L 185.070312 104.742188 C 185.574219 104.527344 186.429688 104.453125 186.96875 104.589844 L 195.597656 106.742188 C 196.25 106.90625 196.769531 107.558594 196.78125 108.234375 L 196.832031 110.921875 C 196.847656 111.578125 196.378906 112.277344 195.773438 112.523438 L 191.183594 114.359375 C 190.863281 114.488281 190.402344 114.5625 189.957031 114.5625 Z M 186.292969 105.386719 C 185.960938 105.386719 185.605469 105.445312 185.382812 105.542969 L 180.894531 107.460938 C 180.617188 107.578125 180.351562 107.964844 180.351562 108.269531 L 180.351562 110.871094 C 180.351562 111.148438 180.605469 111.460938 180.875 111.527344 L 189.472656 113.652344 C 189.828125 113.738281 190.515625 113.691406 190.859375 113.554688 L 195.449219 111.71875 C 195.722656 111.609375 195.96875 111.238281 195.964844 110.941406 L 195.910156 108.25 C 195.902344 107.972656 195.652344 107.65625 195.382812 107.585938 L 186.746094 105.433594 C 186.625 105.402344 186.46875 105.386719 186.292969 105.386719 Z M 186.292969 105.386719 " fill-opacity="1" fill-rule="nonzero"/><path fill="#000000" d="M 190.125 110.398438 L 180.027344 107.859375 L 180.242188 107.019531 L 190.054688 109.484375 L 195.703125 107.148438 L 196.035156 107.949219 Z M 190.125 110.398438 " fill-opacity="1" fill-rule="nonzero"/><path fill="#000000" d="M 189.78125 114.289062 L 189.652344 109.953125 L 190.519531 109.929688 L 190.648438 114.265625 Z M 189.78125 114.289062 " fill-opacity="1" fill-rule="nonzero"/><path fill="#00bfc3" d="M 182.960938 112.488281 C 183.160156 112.535156 183.324219 112.742188 183.328125 112.949219 L 183.402344 116.628906 C 183.40625 116.832031 183.253906 117.0625 183.0625 117.136719 L 177.554688 119.34375 C 177.363281 119.417969 177.046875 119.441406 176.851562 119.390625 L 167.324219 117.03125 C 167.125 116.980469 166.996094 116.773438 166.996094 116.570312 L 166.996094 112.976562 C 166.996094 112.773438 167.117188 112.539062 167.304688 112.457031 L 172.675781 110.148438 C 172.863281 110.066406 173.171875 110.042969 173.371094 110.09375 Z M 182.960938 112.488281 " fill-opacity="1" fill-rule="nonzero"/><path fill="#000000" d="M 176.953125 119.765625 C 176.695312 119.765625 176.460938 119.742188 176.265625 119.691406 L 167.734375 117.570312 C 167.078125 117.40625 166.625 116.75 166.625 116.074219 L 166.625 113.472656 C 166.625 112.824219 167.027344 112.117188 167.621094 111.863281 L 172.066406 109.945312 C 172.574219 109.730469 173.425781 109.65625 173.964844 109.792969 L 182.59375 111.945312 C 183.246094 112.109375 183.761719 112.761719 183.777344 113.4375 L 183.828125 116.125 C 183.839844 116.777344 183.375 117.480469 182.765625 117.726562 L 178.175781 119.5625 C 177.855469 119.691406 177.394531 119.765625 176.953125 119.765625 Z M 173.289062 110.589844 C 172.957031 110.589844 172.597656 110.648438 172.375 110.742188 L 167.902344 112.660156 C 167.621094 112.78125 167.367188 113.167969 167.367188 113.472656 L 167.367188 116.074219 C 167.367188 116.351562 167.609375 116.664062 167.878906 116.730469 L 176.472656 118.851562 C 176.828125 118.941406 177.511719 118.894531 177.855469 118.757812 L 182.441406 116.921875 C 182.71875 116.8125 182.964844 116.441406 182.957031 116.144531 L 182.902344 113.453125 C 182.898438 113.171875 182.644531 112.855469 182.375 112.789062 L 173.738281 110.636719 C 173.617188 110.605469 173.460938 110.589844 173.289062 110.589844 Z M 173.289062 110.589844 " fill-opacity="1" fill-rule="nonzero"/><path fill="#000000" d="M 177.117188 115.601562 L 167.023438 113.0625 L 167.234375 112.222656 L 177.046875 114.6875 L 182.695312 112.351562 L 183.027344 113.152344 Z M 177.117188 115.601562 " fill-opacity="1" fill-rule="nonzero"/><path fill="#000000" d="M 176.773438 119.492188 L 176.644531 115.15625 L 177.511719 115.132812 L 177.640625 119.46875 Z M 176.773438 119.492188 " fill-opacity="1" fill-rule="nonzero"/><path fill="#00bfc3" d="M 169.953125 117.691406 C 170.152344 117.738281 170.316406 117.945312 170.320312 118.152344 L 170.394531 121.832031 C 170.398438 122.039062 170.246094 122.265625 170.054688 122.339844 L 164.546875 124.546875 C 164.359375 124.621094 164.039062 124.644531 163.84375 124.59375 L 154.328125 122.234375 C 154.132812 122.183594 154.011719 121.976562 154.011719 121.773438 L 154.011719 118.179688 C 154.011719 117.976562 154.121094 117.742188 154.308594 117.664062 L 159.675781 115.351562 C 159.863281 115.273438 160.167969 115.246094 160.367188 115.296875 Z M 169.953125 117.691406 " fill-opacity="1" fill-rule="nonzero"/><path fill="#000000" d="M 163.945312 124.96875 C 163.6875 124.96875 163.453125 124.945312 163.257812 124.898438 L 154.738281 122.773438 C 154.082031 122.609375 153.640625 121.953125 153.640625 121.277344 L 153.640625 118.675781 C 153.640625 118.027344 154.03125 117.324219 154.625 117.066406 L 159.066406 115.148438 C 159.570312 114.933594 160.421875 114.859375 160.960938 114.996094 L 169.585938 117.148438 C 170.238281 117.3125 170.753906 117.964844 170.769531 118.640625 L 170.820312 121.328125 C 170.832031 121.980469 170.363281 122.683594 169.757812 122.929688 L 165.167969 124.765625 C 164.847656 124.894531 164.386719 124.96875 163.945312 124.96875 Z M 160.28125 115.792969 C 159.949219 115.792969 159.589844 115.851562 159.371094 115.945312 L 154.90625 117.863281 C 154.625 117.984375 154.382812 118.371094 154.382812 118.675781 L 154.382812 121.277344 C 154.382812 121.554688 154.617188 121.867188 154.882812 121.933594 L 163.472656 124.054688 C 163.828125 124.144531 164.507812 124.097656 164.851562 123.960938 L 169.4375 122.125 C 169.710938 122.015625 169.957031 121.644531 169.953125 121.34375 L 169.898438 118.65625 C 169.890625 118.375 169.640625 118.058594 169.367188 117.992188 L 160.730469 115.839844 C 160.609375 115.808594 160.453125 115.792969 160.28125 115.792969 Z M 160.28125 115.792969 " fill-opacity="1" fill-rule="nonzero"/><path fill="#000000" d="M 164.109375 120.800781 L 154.015625 118.265625 L 154.226562 117.425781 L 164.042969 119.890625 L 169.6875 117.554688 L 170.019531 118.355469 Z M 164.109375 120.800781 " fill-opacity="1" fill-rule="nonzero"/><path fill="#000000" d="M 163.765625 124.691406 L 163.636719 120.355469 L 164.503906 120.332031 L 164.632812 124.667969 Z M 163.765625 124.691406 " fill-opacity="1" fill-rule="nonzero"/></svg>